<svg xmlns="http://www.w3.org/2000/svg" viewBox="0 0 100 100" width="100" height="100">
  <circle cx="50" cy="50" r="48" fill="#ffffff" stroke="#1a1a1a" stroke-width="2"/>
  <path
    d="M50 50
       Q56 50, 56 44
       Q56 38, 50 38
       Q44 38, 44 44
       Q44 56, 56 56"
    fill="none"
    stroke="#1a1a1a"
    stroke-width="3"
    stroke-linecap="round"
  />
  <path
    d="M62 44
       Q62 32, 50 32
       Q38 32, 38 44
       Q38 62, 56 62"
    fill="none"
    stroke="#1a1a1a"
    stroke-width="3"
    stroke-linecap="round"
  />
  <path
    d="M68 44
       Q68 26, 50 26
       Q32 26, 32 44
       Q32 68, 56 68"
    fill="none"
    stroke="#1a1a1a"
    stroke-width="3"
    stroke-linecap="round"
  />
  <path
    d="M74 44
       Q74 20, 50 20
       Q26 20, 26 44
       Q26 74, 56 74"
    fill="none"
    stroke="#1a1a1a"
    stroke-width="3"
    stroke-linecap="round"
  />
  <path
    d="M80 44
       Q80 14, 50 14
       Q20 14, 20 50
       Q20 80, 50 80"
    fill="none"
    stroke="#1a1a1a"
    stroke-width="3"
    stroke-linecap="round"
  />
</svg>
